<?xml version="1.0" standalone="no"?><!DOCTYPE svg PUBLIC "-//W3C//DTD SVG 1.1//EN" "http://www.w3.org/Graphics/SVG/1.1/DTD/svg11.dtd"><svg t="1730194975253" class="icon" viewBox="0 0 1024 1024" version="1.1" xmlns="http://www.w3.org/2000/svg" p-id="7174" xmlns:xlink="http://www.w3.org/1999/xlink" width="200" height="200"><path d="M887.1936 401.732267H136.789333c-39.936 0-71.799467 34.1504-68.266666 74.052266l0.7168 7.406934c16.674133 158.0032 114.944 304.2304 250.026666 370.926933l4.420267 2.116267v24.917333a68.420267 68.420267 0 0 0 68.4032 68.420267h239.803733l3.413334-0.085334a68.420267 68.420267 0 0 0 64.989866-68.317866v-24.917334l4.437334-2.133333c137.181867-67.7376 236.407467-217.514667 250.743466-378.3168 3.515733-39.918933-28.330667-74.069333-68.266666-74.069333zM137.216 476.672L136.533333 469.76c0.034133 0.221867 0.068267 0.256 0.1536 0.238933h750.523734c0.170667 0 0.256 0.085333 0.273066-0.238933-12.987733 145.834667-108.117333 281.634133-234.103466 332.629333a34.133333 34.133333 0 0 0-21.333334 31.658667v47.104l-239.940266 0.1536c-0.068267 0-0.136533-0.068267-0.136534-0.136533V834.048a34.133333 34.133333 0 0 0-21.316266-31.6416C246.647467 752.196267 152.576 619.861333 137.216 476.672z" fill="#515151" p-id="7175"></path><path d="M621.277867 152.251733c35.396267-63.829333 115.2-86.084267 177.152-48.878933 59.835733 35.976533 81.1008 114.432 49.664 175.854933l-2.065067 3.8912-80.878933 159.010134a34.133333 34.133333 0 0 1-61.952-28.5184l1.109333-2.423467 81.442133-160.085333c17.271467-31.1296 6.843733-71.5776-22.493866-89.207467-27.579733-16.571733-63.010133-7.509333-80.0768 19.677867l-1.706667 2.884266-130.082133 252.398934a34.133333 34.133333 0 0 1-61.815467-28.859734l1.143467-2.423466 130.56-253.320534z" fill="#515151" p-id="7176"></path><path d="M297.6768 524.970667c0.068267 41.472 35.328 87.2448 83.899733 113.664l2.082134 1.109333a34.133333 34.133333 0 0 1-28.4672 62.0544c-70.058667-35.652267-123.204267-101.563733-125.696-171.793067l-0.085334-4.9152 68.266667-0.1024z" fill="#515151" p-id="7177"></path></svg>